<svg xmlns="http://www.w3.org/2000/svg" width="200" height="200" class="icon" viewBox="0 0 1024 1024"><path d="M621.714 329.143c0 40.228 32.915 73.143 73.143 73.143h219.429c20.48 0 36.571 16.091 36.571 36.571v146.286c0 20.48-16.091 36.571-36.571 36.571H694.857c-40.228 0-73.143 32.915-73.143 73.143v219.429c0 20.48-16.091 36.571-36.571 36.571H438.857c-20.48 0-36.571-16.091-36.571-36.571V694.857c0-40.228-32.915-73.143-73.143-73.143H109.714c-20.48 0-36.571-16.091-36.571-36.571V438.857c0-20.48 16.091-36.571 36.571-36.571h219.429c40.228 0 73.143-32.915 73.143-73.143V109.714c0-20.48 16.091-36.571 36.571-36.571H547.84c20.48 0 36.571-16.092 36.571-36.572S568.32 0 547.84 0H402.286c-40.229 0-73.143 32.914-73.143 73.143V292.57c0 20.48-16.092 36.572-36.572 36.572H73.143C32.914 329.143 0 362.057 0 402.286v219.428c0 40.229 32.914 73.143 73.143 73.143H292.57c20.48 0 36.572 16.092 36.572 36.572v219.428c0 40.229 32.914 73.143 73.143 73.143h219.428c40.229 0 73.143-32.914 73.143-73.143V731.43c0-20.48 16.092-36.572 36.572-36.572h219.428c40.229 0 73.143-32.914 73.143-73.143V402.286c0-40.229-32.914-73.143-73.143-73.143H731.43c-20.48 0-36.572-16.092-36.572-36.572V144.823c0-20.48-16.091-36.572-36.571-36.572s-36.572 16.092-36.572 36.572v184.32z"/></svg>