<svg xmlns="http://www.w3.org/2000/svg" width="200" height="200" class="icon" viewBox="0 0 1024 1024"><path d="M306.066 245.935V112.597c0-20.742 16.297-37.039 37.039-37.039s37.038 16.297 37.038 37.039v222.23c0 20.741-16.297 37.038-37.038 37.038h-222.23c-20.742 0-37.039-16.297-37.039-37.038s16.297-37.038 37.039-37.038h133.338L19.389 63.706c-14.815-14.815-14.815-37.78 0-52.594 14.816-14.816 37.78-14.816 52.595 0zm411.867 0L952.016 11.112c14.815-14.816 37.779-14.816 52.594 0 14.816 14.815 14.816 37.779 0 52.594L769.787 297.789h133.338c20.742 0 37.038 16.296 37.038 37.038s-16.296 37.038-37.038 37.038h-222.23c-20.742 0-37.039-16.297-37.039-37.038v-222.23c0-20.742 16.297-37.039 37.039-37.039s37.038 16.297 37.038 37.039zM83.836 688.914c0-20.742 16.297-37.039 37.039-37.039h222.23c20.741 0 37.038 16.297 37.038 37.039v222.23c0 20.742-16.297 37.038-37.038 37.038s-37.039-16.296-37.039-37.038V777.806L71.984 1012.629c-14.816 14.816-37.78 14.816-52.595 0-14.815-14.815-14.815-37.779 0-52.594l234.824-234.083H120.875c-20.742 0-37.039-16.297-37.039-37.038zm856.327 0c0 20.741-16.296 37.038-37.038 37.038H769.787l234.823 234.083c14.816 14.815 14.816 37.779 0 52.594-14.815 14.816-37.779 14.816-52.594 0L717.933 777.806v133.338c0 20.742-16.297 37.038-37.038 37.038s-37.039-16.296-37.039-37.038v-222.23c0-20.742 16.297-37.039 37.039-37.039h222.23c20.742 0 37.038 16.297 37.038 37.039z"/></svg>