<svg xmlns="http://www.w3.org/2000/svg" xmlns:xlink="http://www.w3.org/1999/xlink" width="0" height="0" style="display:none;"><symbol viewBox="0 0 1024 1024" id="icon-add"><path d="M621.714 329.143c0 40.228 32.915 73.143 73.143 73.143h219.429c20.48 0 36.571 16.091 36.571 36.571v146.286c0 20.48-16.091 36.571-36.571 36.571H694.857c-40.228 0-73.143 32.915-73.143 73.143v219.429c0 20.48-16.091 36.571-36.571 36.571H438.857c-20.48 0-36.571-16.091-36.571-36.571V694.857c0-40.228-32.915-73.143-73.143-73.143H109.714c-20.48 0-36.571-16.091-36.571-36.571V438.857c0-20.48 16.091-36.571 36.571-36.571h219.429c40.228 0 73.143-32.915 73.143-73.143V109.714c0-20.48 16.091-36.571 36.571-36.571H547.84c20.48 0 36.571-16.092 36.571-36.572S568.32 0 547.84 0H402.286c-40.229 0-73.143 32.914-73.143 73.143V292.57c0 20.48-16.092 36.572-36.572 36.572H73.143C32.914 329.143 0 362.057 0 402.286v219.428c0 40.229 32.914 73.143 73.143 73.143H292.57c20.48 0 36.572 16.092 36.572 36.572v219.428c0 40.229 32.914 73.143 73.143 73.143h219.428c40.229 0 73.143-32.914 73.143-73.143V731.43c0-20.48 16.092-36.572 36.572-36.572h219.428c40.229 0 73.143-32.914 73.143-73.143V402.286c0-40.229-32.914-73.143-73.143-73.143H731.43c-20.48 0-36.572-16.092-36.572-36.572V144.823c0-20.48-16.091-36.572-36.571-36.572s-36.572 16.092-36.572 36.572v184.32z"></path></symbol><symbol viewBox="0 0 1024 1024" id="icon-delete"><path d="M0 170.423v-24.137c0-20.48 16.091-36.572 36.571-36.572H270.63c12.434 0 21.942-9.508 21.942-21.943V54.857C292.571 24.87 317.44 0 347.43 0h329.14c29.989 0 54.858 24.869 54.858 54.857v32.914c0 12.435 9.508 21.943 21.942 21.943h234.06c20.48 0 36.571 16.092 36.571 36.572s-16.091 36.571-36.571 36.571H713.143c-29.989 0-54.857-24.868-54.857-54.857V95.086c0-12.435-9.509-21.943-21.943-21.943H387.657c-12.434 0-21.943 9.508-21.943 21.943V128c0 29.989-24.868 54.857-54.857 54.857H25.6c-10.971 3.657-21.943-2.194-25.6-12.434zM73.143 292.57c0-20.48 16.091-36.571 36.571-36.571s36.572 16.091 36.572 36.571v548.572c0 29.988 10.971 55.588 32.183 77.531 19.748 19.749 43.154 30.72 70.217 32.183H768c29.989 0 55.589-10.971 77.531-32.183 19.749-19.748 30.72-43.154 32.183-70.217V292.571c0-20.48 16.092-36.571 36.572-36.571s36.571 16.091 36.571 36.571v548.572c0 24.868-5.12 48.274-14.628 70.948-8.778 21.943-21.943 41.692-38.766 58.515-16.823 16.823-36.572 29.988-58.514 38.765-21.212 9.509-43.886 13.898-67.292 14.629H256c-24.869 0-48.274-5.12-70.949-14.629-21.942-8.777-41.691-21.942-58.514-38.765S96.55 934.034 87.771 912.09c-9.508-21.211-13.897-43.885-14.628-67.291zm329.143 0c20.48 0 36.571 16.092 36.571 36.572V804.57c0 20.48-16.091 36.572-36.571 36.572s-36.572-16.092-36.572-36.572V329.143c0-20.48 16.092-36.572 36.572-36.572zm219.428 0c20.48 0 36.572 16.092 36.572 36.572V804.57c0 20.48-16.092 36.572-36.572 36.572s-36.571-16.092-36.571-36.572V329.143c0-20.48 16.091-36.572 36.571-36.572z"></path></symbol><symbol viewBox="0 0 1024 1024" id="icon-up"><path d="M733.624 877.714H290.38c-40.96 0-73.875-32.914-73.875-73.143V511.27c0-20.48-16.823-36.572-37.303-36.572H36.573c-32.914-.731-49.737-41.691-24.137-64.366l450.56-392.045c28.525-24.137 69.485-24.137 98.011 0l450.56 392.045c25.6 22.675 8.777 63.635-24.137 64.366H844.801c-20.48 0-37.302 16.092-37.302 36.572v293.3c0 40.229-32.915 73.143-73.875 73.143zM867.476 388.39 536.87 92.89a36.864 36.864 0 0 0-49.006 0L157.26 388.39c-4.389 4.388-1.463 11.702 4.388 12.434h54.857c40.229 0 73.875 32.914 73.875 73.874V768c0 20.48 16.091 36.571 36.571 36.571h370.103c20.48 0 36.571-16.091 36.571-36.571V474.697c0-40.96 33.646-73.874 73.875-73.874h54.857c6.583 0 9.508-8.046 5.12-12.434zM914.287 1024H109.716c-20.48 0-36.572-16.091-36.572-36.571s16.092-36.572 36.572-36.572h804.571c20.48 0 36.572 16.092 36.572 36.572S934.767 1024 914.287 1024z"></path></symbol><symbol viewBox="0 0 1024 1024" id="icon-xuanzhong"><path fill="#3A84FF" d="M512 1024C229.234 1024 0 794.766 0 512S229.234 0 512 0s512 229.234 512 512-229.234 512-512 512zm269.71-707.243a41.16 41.16 0 0 0-58.51 0l-292.551 295.68a15.502 15.502 0 0 1-22.215 0l-89.8-90.737a41.16 41.16 0 0 0-58.51 57.884L390.286 711.31a41.16 41.16 0 0 0 58.51 0L781.71 374.642a40.96 40.96 0 0 0 0-57.885z"></path></symbol><symbol viewBox="0 0 1024 1024" id="icon-zoom"><path d="M306.066 245.935V112.597c0-20.742 16.297-37.039 37.039-37.039s37.038 16.297 37.038 37.039v222.23c0 20.741-16.297 37.038-37.038 37.038h-222.23c-20.742 0-37.039-16.297-37.039-37.038s16.297-37.038 37.039-37.038h133.338L19.389 63.706c-14.815-14.815-14.815-37.78 0-52.594 14.816-14.816 37.78-14.816 52.595 0zm411.867 0L952.016 11.112c14.815-14.816 37.779-14.816 52.594 0 14.816 14.815 14.816 37.779 0 52.594L769.787 297.789h133.338c20.742 0 37.038 16.296 37.038 37.038s-16.296 37.038-37.038 37.038h-222.23c-20.742 0-37.039-16.297-37.039-37.038v-222.23c0-20.742 16.297-37.039 37.039-37.039s37.038 16.297 37.038 37.039zM83.836 688.914c0-20.742 16.297-37.039 37.039-37.039h222.23c20.741 0 37.038 16.297 37.038 37.039v222.23c0 20.742-16.297 37.038-37.038 37.038s-37.039-16.296-37.039-37.038V777.806L71.984 1012.629c-14.816 14.816-37.78 14.816-52.595 0-14.815-14.815-14.815-37.779 0-52.594l234.824-234.083H120.875c-20.742 0-37.039-16.297-37.039-37.038zm856.327 0c0 20.741-16.296 37.038-37.038 37.038H769.787l234.823 234.083c14.816 14.815 14.816 37.779 0 52.594-14.815 14.816-37.779 14.816-52.594 0L717.933 777.806v133.338c0 20.742-16.297 37.038-37.038 37.038s-37.039-16.296-37.039-37.038v-222.23c0-20.742 16.297-37.039 37.039-37.039h222.23c20.742 0 37.038 16.297 37.038 37.039z"></path></symbol></svg>