<svg xmlns="http://www.w3.org/2000/svg" width="200" height="200" class="icon" viewBox="0 0 1024 1024"><path d="M733.624 877.714H290.38c-40.96 0-73.875-32.914-73.875-73.143V511.27c0-20.48-16.823-36.572-37.303-36.572H36.573c-32.914-.731-49.737-41.691-24.137-64.366l450.56-392.045c28.525-24.137 69.485-24.137 98.011 0l450.56 392.045c25.6 22.675 8.777 63.635-24.137 64.366H844.801c-20.48 0-37.302 16.092-37.302 36.572v293.3c0 40.229-32.915 73.143-73.875 73.143zM867.476 388.39 536.87 92.89a36.864 36.864 0 0 0-49.006 0L157.26 388.39c-4.389 4.388-1.463 11.702 4.388 12.434h54.857c40.229 0 73.875 32.914 73.875 73.874V768c0 20.48 16.091 36.571 36.571 36.571h370.103c20.48 0 36.571-16.091 36.571-36.571V474.697c0-40.96 33.646-73.874 73.875-73.874h54.857c6.583 0 9.508-8.046 5.12-12.434zM914.287 1024H109.716c-20.48 0-36.572-16.091-36.572-36.571s16.092-36.572 36.572-36.572h804.571c20.48 0 36.572 16.092 36.572 36.572S934.767 1024 914.287 1024z"/></svg>